<svg xmlns="http://www.w3.org/2000/svg" width="26" height="26" viewBox="0 0 26 26"><g transform="translate(0 -1026.362)"><circle cx="13" cy="1039.362" r="13" fill="#ffa40b" fill-rule="evenodd"/><path fill="#fff" d="M 0,2 0,2.5 0,14 16,14 16,2 0,2 Z M 1,3 11,3 11,4 1,4 1,3 Z m 11,0 1,0 0,1 -1,0 0,-1 z m 2,0 1,0 0,1 -1,0 0,-1 z M 1,5 15,5 15,13 1,13 1,5 Z M 9.0449219,5.7773438 6.0605469,11.777344 6.9550781,12.222656 9.9394531,6.2226562 9.0449219,5.7773438 Z M 4.6464844,6.6464844 2.2929688,9 4.6464844,11.353516 5.3535156,10.646484 3.7070312,9 5.3535156,7.3535156 4.6464844,6.6464844 Z m 6.7070316,0 L 10.646484,7.3535156 12.292969,9 10.646484,10.646484 11.353516,11.353516 13.707031,9 11.353516,6.6464844 Z" color="#000" font-family="sans-serif" font-weight="400" overflow="visible" transform="translate(5 1031.362)" white-space="normal" style="line-height:normal;text-indent:0;text-align:start;text-decoration-line:none;text-decoration-style:solid;text-decoration-color:#000;text-transform:none;block-progression:tb;isolation:auto;mix-blend-mode:normal"/></g></svg>